<?xml version="1.0" encoding="UTF-8" standalone="no"?>
<!DOCTYPE svg PUBLIC "-//W3C//DTD SVG 1.1//EN" "http://www.w3.org/Graphics/SVG/1.1/DTD/svg11.dtd">
<svg width="100%" height="100%" viewBox="0 0 1080 1080" version="1.1" xmlns="http://www.w3.org/2000/svg" xmlns:xlink="http://www.w3.org/1999/xlink" xml:space="preserve" xmlns:serif="http://www.serif.com/" style="fill-rule:evenodd;clip-rule:evenodd;stroke-linejoin:round;stroke-miterlimit:2;">
    <g transform="matrix(0.165217,0,0,0.165217,540,853.601)">
        <g id="Claim_Endlich_machen_Pfade_CMYK.eps" transform="matrix(1,0,0,1,-2339.58,-754.167)">
            <g transform="matrix(4.16667,0,0,4.16667,0,0)">
                <path d="M56.716,145.36L36.006,145.36L32.08,170.402L46.699,170.402L43.856,188.946L29.102,188.946L25.042,214.259L45.752,214.259L42.638,233.886L0,233.886L17.326,125.597L59.829,125.597L56.716,145.36Z" style="fill:rgb(255,231,20);fill-rule:nonzero;"/>
                <path d="M107.071,169.59L96.918,233.886L77.291,233.886L86.902,172.568C87.443,169.183 86.36,167.559 83.789,167.559C82.029,167.559 80.54,168.371 79.321,169.996L69.169,233.886L49.542,233.886L62.266,153.346L81.894,153.346L80.946,158.896C83.924,155.377 88.661,151.993 95.294,151.993C104.499,151.993 108.966,157.543 107.071,169.59Z" style="fill:rgb(255,231,20);fill-rule:nonzero;"/>
                <path d="M134.821,217.643L142.672,167.424C141.86,166.206 140.642,165.529 139.017,165.529C136.31,165.529 134.686,166.883 134.009,170.943L126.97,215.206C126.429,218.726 127.512,220.215 130.082,220.215C131.979,220.215 133.467,219.267 134.821,217.643ZM149.305,125.597L168.932,125.597L151.741,233.886L133.467,233.886L134.821,226.035C130.896,231.856 125.481,235.24 119.39,235.24C110.727,235.24 104.906,230.231 106.801,218.184L114.381,171.485C116.547,158.355 123.586,151.993 134.28,151.993C138.34,151.993 141.725,153.075 144.702,155.106L149.305,125.597Z" style="fill:rgb(255,231,20);fill-rule:nonzero;"/>
                <path d="M177.462,125.597L197.089,125.597L179.899,233.886L160.271,233.886L177.462,125.597Z" style="fill:rgb(255,231,20);fill-rule:nonzero;"/>
                <path d="M203.859,147.526L206.566,130.606L223.757,130.606L221.05,147.526L203.859,147.526ZM188.834,233.886L201.558,153.346L221.185,153.346L208.461,233.886L188.834,233.886Z" style="fill:rgb(255,231,20);fill-rule:nonzero;"/>
                <path d="M219.833,211.145L225.924,173.38C228.36,157.949 238.377,151.993 252.184,151.993C265.99,151.993 275.195,158.49 272.488,176.087L270.863,186.916L251.372,186.916L253.673,171.62C254.214,167.83 252.996,166.07 250.153,166.07C247.852,166.07 246.228,167.559 245.687,170.808L238.647,215.612C238.106,219.403 239.324,221.162 242.167,221.162C244.739,221.162 246.092,219.673 246.634,216.425L249.07,201.129L268.563,201.129L266.667,213.853C264.366,229.419 253.943,235.24 240.137,235.24C226.33,235.24 216.99,228.742 219.833,211.145Z" style="fill:rgb(255,231,20);fill-rule:nonzero;"/>
                <path d="M328.528,169.59L318.376,233.886L298.749,233.886L308.359,172.568C308.901,169.183 307.818,167.559 305.246,167.559C303.486,167.559 301.997,168.371 300.779,169.861L290.627,233.886L271,233.886L288.19,125.597L307.818,125.597L302.539,158.896C305.381,155.241 310.254,151.993 316.751,151.993C325.956,151.993 330.423,157.543 328.528,169.59Z" style="fill:rgb(255,231,20);fill-rule:nonzero;"/>
                <path d="M435.328,169.59L425.176,233.886L405.549,233.886L415.159,172.568C415.701,169.183 414.618,167.559 412.046,167.559C410.286,167.559 408.933,168.371 407.714,169.725L397.563,233.886L377.935,233.886L387.546,172.568C388.087,169.183 387.004,167.559 384.433,167.559C382.673,167.559 381.184,168.371 379.965,169.996L369.813,233.886L350.186,233.886L362.91,153.346L382.538,153.346L381.59,158.896C384.568,155.377 389.305,151.993 395.938,151.993C402.571,151.993 406.767,154.835 407.85,160.927C410.422,156.73 415.701,151.993 423.552,151.993C432.756,151.993 437.223,157.543 435.328,169.59Z" style="fill:rgb(255,231,20);fill-rule:nonzero;"/>
                <path d="M462.676,217.508L466.06,195.985L462.135,195.985C459.563,195.985 457.532,197.203 457.126,200.046L454.69,215.612C454.148,219.403 455.367,221.162 458.209,221.162C460.239,221.162 461.729,220.079 462.676,217.508ZM488.665,176.628C488.124,179.877 480.814,226.712 479.596,233.886L461.322,233.886L462.27,228.336C457.803,233.345 452.524,235.24 447.245,235.24C438.582,235.24 432.761,229.825 434.656,218.049L437.093,203.159C439.529,188.269 446.433,183.261 463.082,183.261L468.09,183.261L469.85,171.891C470.527,167.83 469.173,166.206 466.466,166.206C463.894,166.206 461.999,167.559 461.458,171.62L460.51,178.117L441.018,178.117L441.695,174.056C444.402,157.949 454.419,151.993 468.361,151.993C482.168,151.993 491.237,158.896 488.665,176.628Z" style="fill:rgb(255,231,20);fill-rule:nonzero;"/>
                <path d="M490.563,211.145L496.654,173.38C499.091,157.949 509.107,151.993 522.914,151.993C536.721,151.993 545.925,158.49 543.218,176.087L541.594,186.916L522.102,186.916L524.403,171.62C524.944,167.83 523.726,166.07 520.883,166.07C518.583,166.07 516.958,167.559 516.417,170.808L509.378,215.612C508.836,219.403 510.055,221.162 512.896,221.162C515.469,221.162 516.823,219.673 517.364,216.425L519.801,201.129L539.293,201.129L537.398,213.853C535.097,229.419 524.674,235.24 510.867,235.24C497.06,235.24 487.72,228.742 490.563,211.145Z" style="fill:rgb(255,231,20);fill-rule:nonzero;"/>
                <path d="M599.258,169.59L589.106,233.886L569.479,233.886L579.089,172.568C579.63,169.183 578.547,167.559 575.976,167.559C574.216,167.559 572.727,168.371 571.509,169.861L561.357,233.886L541.729,233.886L558.92,125.597L578.547,125.597L573.269,158.896C576.111,155.241 580.984,151.993 587.482,151.993C596.686,151.993 601.153,157.543 599.258,169.59Z" style="fill:rgb(255,231,20);fill-rule:nonzero;"/>
                <path d="M622.676,191.247L630.933,191.247L633.912,171.62C634.453,167.83 633.235,166.07 630.392,166.07C628.091,166.07 626.466,167.559 625.925,170.808L622.676,191.247ZM652.726,176.087L649.208,199.504L621.458,199.504L618.886,215.612C618.345,219.403 619.563,221.162 622.406,221.162C624.978,221.162 626.332,219.673 626.873,216.425L628.497,206.678L647.989,206.678L646.906,213.853C644.605,229.284 634.182,235.24 620.375,235.24C606.569,235.24 597.229,228.742 600.071,211.145L606.163,173.515C608.734,157.949 618.616,151.993 632.422,151.993C646.229,151.993 655.434,158.49 652.726,176.087Z" style="fill:rgb(255,231,20);fill-rule:nonzero;"/>
                <path d="M708.767,169.59L698.615,233.886L678.988,233.886L688.598,172.568C689.139,169.183 688.056,167.559 685.485,167.559C683.725,167.559 682.236,168.371 681.018,169.996L670.866,233.886L651.239,233.886L663.962,153.346L683.589,153.346L682.642,158.896C685.62,155.377 690.358,151.993 696.991,151.993C706.195,151.993 710.662,157.543 708.767,169.59Z" style="fill:rgb(255,231,20);fill-rule:nonzero;"/>
                <path d="M706.738,233.886L709.851,213.988L729.749,213.988L726.635,233.886L706.738,233.886Z" style="fill:rgb(255,231,20);fill-rule:nonzero;"/>
            </g>
        </g>
        <g id="Claim_Endlich_machen_Pfade_CMYK.eps1" serif:id="Claim_Endlich_machen_Pfade_CMYK.eps">
        </g>
    </g>
</svg>
