<?xml version="1.0" encoding="UTF-8" standalone="no"?>
<!DOCTYPE svg PUBLIC "-//W3C//DTD SVG 1.1//EN" "http://www.w3.org/Graphics/SVG/1.1/DTD/svg11.dtd">
<svg width="100%" height="100%" viewBox="0 0 4096 4096" version="1.1" xmlns="http://www.w3.org/2000/svg" xmlns:xlink="http://www.w3.org/1999/xlink" xml:space="preserve" xmlns:serif="http://www.serif.com/" style="fill-rule:evenodd;clip-rule:evenodd;stroke-linejoin:round;stroke-miterlimit:2;">
    <g>
        <path d="M2048,364C2977.43,364 3732,1118.58 3732,2048C3732,2977.43 2977.43,3732 2048,3732C1118.58,3732 364,2977.43 364,2048C364,1118.58 1118.58,364 2048,364ZM2048,4096C917.678,4096 -0,3178.32 -0,2048C-0,917.678 917.678,0 2048,0C3178.32,0 4096,917.678 4096,2048C4096,3178.32 3178.32,4096 2048,4096Z" style="fill:rgb(0,90,80);"/>
        <path d="M4096,2048C4096,917.678 3178.32,0 2048,0C917.678,0 -0,917.678 -0,2048C-0,3178.32 917.678,4096 2048,4096L-0,4096L-0,0L4096,0L4096,2048ZM4096,4096L2048,4096C3178.32,4096 4096,3178.32 4096,2048L4096,4096Z" style="fill:rgb(0,90,80);fill-opacity:0.8;"/>
    </g>
    <g id="Logos">
    </g>
</svg>
