<?xml version="1.0" encoding="UTF-8" standalone="no"?>
<!DOCTYPE svg PUBLIC "-//W3C//DTD SVG 1.1//EN" "http://www.w3.org/Graphics/SVG/1.1/DTD/svg11.dtd">
<svg width="100%" height="100%" viewBox="0 0 4096 4096" version="1.1" xmlns="http://www.w3.org/2000/svg" xmlns:xlink="http://www.w3.org/1999/xlink" xml:space="preserve" xmlns:serif="http://www.serif.com/" style="fill-rule:evenodd;clip-rule:evenodd;stroke-linejoin:round;stroke-miterlimit:2;">
    <g id="Logos">
    </g>
    <g>
        <g transform="matrix(1.05018,0,0,1.06299,-175.791,-112.653)">
            <ellipse cx="2883.15" cy="1175.67" rx="620.148" ry="612.672" style="fill:rgb(243,153,48);"/>
        </g>
        <g transform="matrix(0.993267,-0.115849,0.115849,0.993267,-213.067,320.542)">
            <g transform="matrix(304.167,0,0,304.167,2502.05,972.665)">
                <path d="M0.419,-0.8L0.224,-0.8L-0.032,-0L0.135,-0L0.166,-0.121L0.261,-0.121L0.253,-0L0.424,-0L0.419,-0.8ZM0.295,-0.621L0.27,-0.249L0.199,-0.249L0.295,-0.621Z" style="fill:rgb(17,68,66);fill-rule:nonzero;"/>
            </g>
            <g transform="matrix(304.167,0,0,304.167,2649.87,972.665)">
                <path d="M0.525,-0.605C0.467,-0.605 0.428,-0.57 0.409,-0.539C0.401,-0.584 0.37,-0.605 0.321,-0.605C0.272,-0.605 0.237,-0.58 0.215,-0.554L0.222,-0.595L0.077,-0.595L-0.017,-0L0.128,-0L0.203,-0.472C0.212,-0.484 0.223,-0.49 0.236,-0.49C0.255,-0.49 0.263,-0.478 0.259,-0.453L0.188,-0L0.333,-0L0.408,-0.474C0.417,-0.484 0.427,-0.49 0.44,-0.49C0.459,-0.49 0.467,-0.478 0.463,-0.453L0.392,-0L0.537,-0L0.612,-0.475C0.626,-0.564 0.593,-0.605 0.525,-0.605Z" style="fill:rgb(17,68,66);fill-rule:nonzero;"/>
            </g>
            <g transform="matrix(304.167,0,0,304.167,2889.86,972.665)">
                <path d="M0.294,-0.81C0.178,-0.81 0.102,-0.757 0.083,-0.636L0.053,-0.449C0.035,-0.334 0.083,-0.279 0.165,-0.279C0.205,-0.279 0.238,-0.291 0.262,-0.313L0.238,-0.164C0.233,-0.131 0.218,-0.118 0.196,-0.118C0.172,-0.118 0.164,-0.134 0.169,-0.164L0.181,-0.242L0.02,-0.242L0.009,-0.176C-0.011,-0.053 0.065,0.01 0.187,0.01C0.31,0.01 0.382,-0.051 0.4,-0.167L0.474,-0.632C0.493,-0.749 0.425,-0.81 0.294,-0.81ZM0.284,-0.45C0.279,-0.417 0.265,-0.404 0.242,-0.404C0.219,-0.404 0.209,-0.418 0.214,-0.449L0.244,-0.636C0.249,-0.669 0.264,-0.682 0.286,-0.682C0.31,-0.682 0.318,-0.665 0.313,-0.636L0.284,-0.45Z" style="fill:rgb(17,68,66);fill-rule:nonzero;"/>
            </g>
            <g transform="matrix(304.167,0,0,304.167,3020.35,972.665)">
                <path d="M0.13,-0L0.153,-0.147L0.006,-0.147L-0.017,-0L0.13,-0Z" style="fill:rgb(17,68,66);fill-rule:nonzero;"/>
            </g>
            <g transform="matrix(304.167,0,0,304.167,3083.31,972.665)">
                <path d="M0.216,-0.8C0.194,-0.731 0.158,-0.704 0.076,-0.7L0.057,-0.581L0.14,-0.581L0.048,-0L0.209,-0L0.335,-0.8L0.216,-0.8Z" style="fill:rgb(17,68,66);fill-rule:nonzero;"/>
            </g>
            <g transform="matrix(304.167,0,0,304.167,3171.82,972.665)">
                <path d="M0.18,0.01C0.307,0.01 0.379,-0.051 0.398,-0.166L0.472,-0.623C0.492,-0.749 0.42,-0.81 0.298,-0.81C0.172,-0.81 0.099,-0.749 0.081,-0.634L0.009,-0.176C-0.011,-0.051 0.06,0.01 0.18,0.01ZM0.196,-0.118C0.172,-0.118 0.164,-0.136 0.169,-0.165L0.243,-0.635C0.248,-0.668 0.262,-0.682 0.284,-0.682C0.308,-0.682 0.316,-0.664 0.311,-0.635L0.237,-0.165C0.232,-0.132 0.218,-0.118 0.196,-0.118Z" style="fill:rgb(17,68,66);fill-rule:nonzero;"/>
            </g>
            <g transform="matrix(304.167,0,0,304.167,3302.01,972.665)">
                <path d="M0.13,-0L0.153,-0.147L0.006,-0.147L-0.017,-0L0.13,-0Z" style="fill:rgb(17,68,66);fill-rule:nonzero;"/>
            </g>
            <g transform="matrix(304.167,0,0,304.167,2695.04,1264.33)">
                <path d="M0.298,-0.81C0.172,-0.81 0.099,-0.749 0.081,-0.634L0.009,-0.176C-0.011,-0.051 0.06,0.01 0.182,0.01C0.307,0.01 0.38,-0.051 0.398,-0.166L0.444,-0.456L0.249,-0.456L0.229,-0.328L0.263,-0.328L0.237,-0.164C0.232,-0.131 0.218,-0.118 0.196,-0.118C0.172,-0.118 0.164,-0.135 0.169,-0.164L0.243,-0.636C0.248,-0.669 0.262,-0.682 0.284,-0.682C0.308,-0.682 0.316,-0.666 0.311,-0.636L0.296,-0.538L0.457,-0.538L0.472,-0.623C0.494,-0.749 0.42,-0.81 0.298,-0.81Z" style="fill:rgb(17,68,66);fill-rule:nonzero;"/>
            </g>
            <g transform="matrix(304.167,0,0,304.167,2831.31,1264.33)">
                <path d="M0.222,-0.595L0.077,-0.595L-0.017,-0L0.128,-0L0.185,-0.364C0.198,-0.444 0.237,-0.473 0.317,-0.463L0.34,-0.6C0.283,-0.607 0.238,-0.576 0.209,-0.515L0.222,-0.595Z" style="fill:rgb(17,68,66);fill-rule:nonzero;"/>
            </g>
            <g transform="matrix(304.167,0,0,304.167,2922.56,1264.33)">
                <path d="M0.155,-0.763L0.135,-0.638L0.242,-0.638L0.262,-0.763L0.155,-0.763ZM0.295,-0.763L0.275,-0.638L0.382,-0.638L0.402,-0.763L0.295,-0.763ZM0.207,-0.123C0.198,-0.111 0.187,-0.105 0.174,-0.105C0.155,-0.105 0.147,-0.117 0.151,-0.142L0.222,-0.595L0.077,-0.595L0.002,-0.12C-0.012,-0.031 0.021,0.01 0.089,0.01C0.138,0.01 0.173,-0.015 0.195,-0.041L0.188,-0L0.333,-0L0.427,-0.595L0.282,-0.595L0.207,-0.123Z" style="fill:rgb(17,68,66);fill-rule:nonzero;"/>
            </g>
            <g transform="matrix(304.167,0,0,304.167,3047.27,1264.33)">
                <path d="M0.321,-0.605C0.272,-0.605 0.237,-0.58 0.215,-0.554L0.222,-0.595L0.077,-0.595L-0.017,-0L0.128,-0L0.203,-0.472C0.212,-0.484 0.223,-0.49 0.236,-0.49C0.255,-0.49 0.263,-0.478 0.259,-0.453L0.188,-0L0.333,-0L0.408,-0.475C0.422,-0.564 0.389,-0.605 0.321,-0.605Z" style="fill:rgb(17,68,66);fill-rule:nonzero;"/>
            </g>
            <g transform="matrix(304.167,0,0,304.167,2528.82,1556)">
                <path d="M0.382,-0.246L0.394,-0.595L0.294,-0.595L0.196,-0.246L0.207,-0.595L0.062,-0.595L0.068,-0L0.213,-0L0.288,-0.24L0.287,-0L0.432,-0L0.626,-0.595L0.481,-0.595L0.382,-0.246Z" style="fill:rgb(17,68,66);fill-rule:nonzero;"/>
            </g>
            <g transform="matrix(304.167,0,0,304.167,2709.49,1556)">
                <path d="M0.15,-0.763L0.13,-0.638L0.237,-0.638L0.257,-0.763L0.15,-0.763ZM0.29,-0.763L0.27,-0.638L0.377,-0.638L0.397,-0.763L0.29,-0.763ZM0.245,-0.605C0.142,-0.605 0.068,-0.561 0.048,-0.442L0.043,-0.412L0.187,-0.412L0.194,-0.46C0.198,-0.49 0.212,-0.5 0.231,-0.5C0.251,-0.5 0.261,-0.488 0.256,-0.458L0.243,-0.374L0.206,-0.374C0.083,-0.374 0.032,-0.337 0.014,-0.227L-0.004,-0.117C-0.018,-0.03 0.025,0.01 0.089,0.01C0.128,0.01 0.167,-0.004 0.2,-0.041L0.193,-0L0.328,-0C0.337,-0.053 0.391,-0.399 0.395,-0.423C0.414,-0.554 0.347,-0.605 0.245,-0.605ZM0.17,-0.094C0.149,-0.094 0.14,-0.107 0.144,-0.135L0.162,-0.25C0.165,-0.271 0.18,-0.28 0.199,-0.28L0.228,-0.28L0.203,-0.121C0.196,-0.102 0.185,-0.094 0.17,-0.094Z" style="fill:rgb(17,68,66);fill-rule:nonzero;"/>
            </g>
            <g transform="matrix(304.167,0,0,304.167,2832.68,1556)">
                <path d="M0.321,-0.605C0.273,-0.605 0.237,-0.581 0.216,-0.554L0.255,-0.8L0.11,-0.8L-0.017,-0L0.128,-0L0.203,-0.473C0.212,-0.484 0.223,-0.49 0.236,-0.49C0.255,-0.49 0.263,-0.478 0.259,-0.453L0.188,-0L0.333,-0L0.408,-0.475C0.422,-0.564 0.389,-0.605 0.321,-0.605Z" style="fill:rgb(17,68,66);fill-rule:nonzero;"/>
            </g>
            <g transform="matrix(304.167,0,0,304.167,2957.39,1556)">
                <path d="M-0.014,-0L0.131,-0L0.258,-0.8L0.113,-0.8L-0.014,-0Z" style="fill:rgb(17,68,66);fill-rule:nonzero;"/>
            </g>
            <g transform="matrix(304.167,0,0,304.167,3021.57,1556)">
                <path d="M0.243,-0.605C0.141,-0.605 0.068,-0.561 0.049,-0.446L0.004,-0.168C-0.017,-0.038 0.052,0.01 0.154,0.01C0.256,0.01 0.333,-0.034 0.35,-0.148L0.358,-0.201L0.214,-0.201L0.202,-0.129C0.198,-0.105 0.188,-0.094 0.169,-0.094C0.148,-0.094 0.139,-0.107 0.143,-0.135L0.162,-0.254L0.367,-0.254L0.393,-0.427C0.413,-0.557 0.345,-0.605 0.243,-0.605ZM0.195,-0.466C0.199,-0.49 0.211,-0.501 0.228,-0.501C0.249,-0.501 0.258,-0.488 0.254,-0.46L0.232,-0.315L0.171,-0.315L0.195,-0.466Z" style="fill:rgb(17,68,66);fill-rule:nonzero;"/>
            </g>
            <g transform="matrix(304.167,0,0,304.167,3142.93,1556)">
                <path d="M0.321,-0.605C0.272,-0.605 0.237,-0.58 0.215,-0.554L0.222,-0.595L0.077,-0.595L-0.017,-0L0.128,-0L0.203,-0.472C0.212,-0.484 0.223,-0.49 0.236,-0.49C0.255,-0.49 0.263,-0.478 0.259,-0.453L0.188,-0L0.333,-0L0.408,-0.475C0.422,-0.564 0.389,-0.605 0.321,-0.605Z" style="fill:rgb(17,68,66);fill-rule:nonzero;"/>
            </g>
            <g transform="matrix(304.167,0,0,304.167,3267.64,1556)">
                <path d="M0.061,-0.453L0.031,-0.209L0.172,-0.209L0.219,-0.453L0.277,-0.8L0.115,-0.8L0.061,-0.453ZM0.144,-0L0.167,-0.147L0.02,-0.147L-0.003,-0L0.144,-0Z" style="fill:rgb(17,68,66);fill-rule:nonzero;"/>
            </g>
        </g>
    </g>
</svg>
