<?xml version="1.0" encoding="UTF-8" standalone="no"?>
<!DOCTYPE svg PUBLIC "-//W3C//DTD SVG 1.1//EN" "http://www.w3.org/Graphics/SVG/1.1/DTD/svg11.dtd">
<svg width="100%" height="100%" viewBox="0 0 4096 4096" version="1.1" xmlns="http://www.w3.org/2000/svg" xmlns:xlink="http://www.w3.org/1999/xlink" xml:space="preserve" xmlns:serif="http://www.serif.com/" style="fill-rule:evenodd;clip-rule:evenodd;stroke-linejoin:round;stroke-miterlimit:2;">
    <g id="Logos">
    </g>
    <g>
        <path d="M24.154,2363.21L2377,2363.21L2302.72,2880.95L3554.08,2880.95L3479.08,3403.69L513.435,3403.69C259.877,3116.97 85.343,2758.69 24.154,2363.21Z" style="fill:rgb(239,144,23);"/>
        <g transform="matrix(1,0,0,1,511.344,127.948)">
            <g transform="matrix(500,0,0,500,108,2705.5)">
                <path d="M0.419,-0.8L0.224,-0.8L-0.032,-0L0.135,-0L0.166,-0.121L0.261,-0.121L0.253,-0L0.424,-0L0.419,-0.8ZM0.295,-0.621L0.27,-0.249L0.199,-0.249L0.295,-0.621Z" style="fill:rgb(0,90,80);fill-rule:nonzero;"/>
            </g>
            <g transform="matrix(500,0,0,500,351,2705.5)">
                <path d="M0.525,-0.605C0.467,-0.605 0.428,-0.57 0.409,-0.539C0.401,-0.584 0.37,-0.605 0.321,-0.605C0.272,-0.605 0.237,-0.58 0.215,-0.554L0.222,-0.595L0.077,-0.595L-0.017,-0L0.128,-0L0.203,-0.472C0.212,-0.484 0.223,-0.49 0.236,-0.49C0.255,-0.49 0.263,-0.478 0.259,-0.453L0.188,-0L0.333,-0L0.408,-0.474C0.417,-0.484 0.427,-0.49 0.44,-0.49C0.459,-0.49 0.467,-0.478 0.463,-0.453L0.392,-0L0.537,-0L0.612,-0.475C0.626,-0.564 0.593,-0.605 0.525,-0.605Z" style="fill:rgb(0,90,80);fill-rule:nonzero;"/>
            </g>
            <g transform="matrix(500,0,0,500,745.5,2705.5)">
                <path d="M0.294,-0.81C0.178,-0.81 0.102,-0.757 0.083,-0.636L0.053,-0.449C0.035,-0.334 0.083,-0.279 0.165,-0.279C0.205,-0.279 0.238,-0.291 0.262,-0.313L0.238,-0.164C0.233,-0.131 0.218,-0.118 0.196,-0.118C0.172,-0.118 0.164,-0.134 0.169,-0.164L0.181,-0.242L0.02,-0.242L0.009,-0.176C-0.011,-0.053 0.065,0.01 0.187,0.01C0.31,0.01 0.382,-0.051 0.4,-0.167L0.474,-0.632C0.493,-0.749 0.425,-0.81 0.294,-0.81ZM0.284,-0.45C0.279,-0.417 0.265,-0.404 0.242,-0.404C0.219,-0.404 0.209,-0.418 0.214,-0.449L0.244,-0.636C0.249,-0.669 0.264,-0.682 0.286,-0.682C0.31,-0.682 0.318,-0.665 0.313,-0.636L0.284,-0.45Z" style="fill:rgb(0,90,80);fill-rule:nonzero;"/>
            </g>
            <g transform="matrix(500,0,0,500,960,2705.5)">
                <path d="M0.13,-0L0.153,-0.147L0.006,-0.147L-0.017,-0L0.13,-0Z" style="fill:rgb(0,90,80);fill-rule:nonzero;"/>
            </g>
            <g transform="matrix(500,0,0,500,1063.5,2705.5)">
                <path d="M0.216,-0.8C0.194,-0.731 0.158,-0.704 0.076,-0.7L0.057,-0.581L0.14,-0.581L0.048,-0L0.209,-0L0.335,-0.8L0.216,-0.8Z" style="fill:rgb(0,90,80);fill-rule:nonzero;"/>
            </g>
            <g transform="matrix(500,0,0,500,1209,2705.5)">
                <path d="M0.18,0.01C0.307,0.01 0.379,-0.051 0.398,-0.166L0.472,-0.623C0.492,-0.749 0.42,-0.81 0.298,-0.81C0.172,-0.81 0.099,-0.749 0.081,-0.634L0.009,-0.176C-0.011,-0.051 0.06,0.01 0.18,0.01ZM0.196,-0.118C0.172,-0.118 0.164,-0.136 0.169,-0.165L0.243,-0.635C0.248,-0.668 0.262,-0.682 0.284,-0.682C0.308,-0.682 0.316,-0.664 0.311,-0.635L0.237,-0.165C0.232,-0.132 0.218,-0.118 0.196,-0.118Z" style="fill:rgb(0,90,80);fill-rule:nonzero;"/>
            </g>
            <g transform="matrix(500,0,0,500,1423,2705.5)">
                <path d="M0.13,-0L0.153,-0.147L0.006,-0.147L-0.017,-0L0.13,-0Z" style="fill:rgb(0,90,80);fill-rule:nonzero;"/>
            </g>
            <g transform="matrix(500,0,0,500,108,3205.5)">
                <path d="M0.298,-0.81C0.172,-0.81 0.099,-0.749 0.081,-0.634L0.009,-0.176C-0.011,-0.051 0.06,0.01 0.182,0.01C0.307,0.01 0.38,-0.051 0.398,-0.166L0.444,-0.456L0.249,-0.456L0.229,-0.328L0.263,-0.328L0.237,-0.164C0.232,-0.131 0.218,-0.118 0.196,-0.118C0.172,-0.118 0.164,-0.135 0.169,-0.164L0.243,-0.636C0.248,-0.669 0.262,-0.682 0.284,-0.682C0.308,-0.682 0.316,-0.666 0.311,-0.636L0.296,-0.538L0.457,-0.538L0.472,-0.623C0.494,-0.749 0.42,-0.81 0.298,-0.81Z" style="fill:rgb(0,90,80);fill-rule:nonzero;"/>
            </g>
            <g transform="matrix(500,0,0,500,332,3205.5)">
                <path d="M0.115,-0.8L-0.012,-0L0.15,-0L0.188,-0.245L0.224,-0.245L0.237,-0L0.383,-0L0.371,-0.289C0.409,-0.312 0.435,-0.352 0.448,-0.433L0.478,-0.623C0.496,-0.739 0.423,-0.8 0.3,-0.8L0.115,-0.8ZM0.285,-0.419C0.28,-0.386 0.266,-0.373 0.244,-0.373L0.209,-0.373L0.256,-0.672L0.289,-0.672C0.313,-0.672 0.322,-0.656 0.317,-0.626L0.285,-0.419Z" style="fill:rgb(0,90,80);fill-rule:nonzero;"/>
            </g>
            <g transform="matrix(500,0,0,500,559.5,3205.5)">
                <path d="M0.293,-0.829L0.313,-0.954L0.206,-0.954L0.186,-0.829L0.293,-0.829ZM0.433,-0.829L0.453,-0.954L0.346,-0.954L0.326,-0.829L0.433,-0.829ZM0.18,0.01C0.307,0.01 0.38,-0.051 0.398,-0.166L0.499,-0.8L0.338,-0.8L0.237,-0.165C0.232,-0.132 0.218,-0.118 0.196,-0.118C0.172,-0.118 0.164,-0.136 0.169,-0.165L0.27,-0.8L0.108,-0.8L0.009,-0.176C-0.011,-0.051 0.06,0.01 0.18,0.01Z" style="fill:rgb(0,90,80);fill-rule:nonzero;"/>
            </g>
            <g transform="matrix(500,0,0,500,783,3205.5)">
                <path d="M0.312,-0.392L0.264,-0.8L0.115,-0.8L-0.012,-0L0.141,-0L0.206,-0.407L0.25,-0L0.398,-0L0.525,-0.8L0.376,-0.8L0.312,-0.392Z" style="fill:rgb(0,90,80);fill-rule:nonzero;"/>
            </g>
            <g transform="matrix(500,0,0,500,1110.5,3205.5)">
                <path d="M0.382,-0.246L0.394,-0.595L0.294,-0.595L0.196,-0.246L0.207,-0.595L0.062,-0.595L0.068,-0L0.213,-0L0.288,-0.24L0.287,-0L0.432,-0L0.626,-0.595L0.481,-0.595L0.382,-0.246Z" style="fill:rgb(0,90,80);fill-rule:nonzero;"/>
            </g>
            <g transform="matrix(500,0,0,500,1407.5,3205.5)">
                <path d="M0.15,-0.763L0.13,-0.638L0.237,-0.638L0.257,-0.763L0.15,-0.763ZM0.29,-0.763L0.27,-0.638L0.377,-0.638L0.397,-0.763L0.29,-0.763ZM0.245,-0.605C0.142,-0.605 0.068,-0.561 0.048,-0.442L0.043,-0.412L0.187,-0.412L0.194,-0.46C0.198,-0.49 0.212,-0.5 0.231,-0.5C0.251,-0.5 0.261,-0.488 0.256,-0.458L0.243,-0.374L0.206,-0.374C0.083,-0.374 0.032,-0.337 0.014,-0.227L-0.004,-0.117C-0.018,-0.03 0.025,0.01 0.089,0.01C0.128,0.01 0.167,-0.004 0.2,-0.041L0.193,-0L0.328,-0C0.337,-0.053 0.391,-0.399 0.395,-0.423C0.414,-0.554 0.347,-0.605 0.245,-0.605ZM0.17,-0.094C0.149,-0.094 0.14,-0.107 0.144,-0.135L0.162,-0.25C0.165,-0.271 0.18,-0.28 0.199,-0.28L0.228,-0.28L0.203,-0.121C0.196,-0.102 0.185,-0.094 0.17,-0.094Z" style="fill:rgb(0,90,80);fill-rule:nonzero;"/>
            </g>
            <g transform="matrix(500,0,0,500,1610,3205.5)">
                <path d="M0.321,-0.605C0.273,-0.605 0.237,-0.581 0.216,-0.554L0.255,-0.8L0.11,-0.8L-0.017,-0L0.128,-0L0.203,-0.473C0.212,-0.484 0.223,-0.49 0.236,-0.49C0.255,-0.49 0.263,-0.478 0.259,-0.453L0.188,-0L0.333,-0L0.408,-0.475C0.422,-0.564 0.389,-0.605 0.321,-0.605Z" style="fill:rgb(0,90,80);fill-rule:nonzero;"/>
            </g>
            <g transform="matrix(500,0,0,500,1815,3205.5)">
                <path d="M-0.014,-0L0.131,-0L0.258,-0.8L0.113,-0.8L-0.014,-0Z" style="fill:rgb(0,90,80);fill-rule:nonzero;"/>
            </g>
            <g transform="matrix(500,0,0,500,1920.5,3205.5)">
                <path d="M0.243,-0.605C0.141,-0.605 0.068,-0.561 0.049,-0.446L0.004,-0.168C-0.017,-0.038 0.052,0.01 0.154,0.01C0.256,0.01 0.333,-0.034 0.35,-0.148L0.358,-0.201L0.214,-0.201L0.202,-0.129C0.198,-0.105 0.188,-0.094 0.169,-0.094C0.148,-0.094 0.139,-0.107 0.143,-0.135L0.162,-0.254L0.367,-0.254L0.393,-0.427C0.413,-0.557 0.345,-0.605 0.243,-0.605ZM0.195,-0.466C0.199,-0.49 0.211,-0.501 0.228,-0.501C0.249,-0.501 0.258,-0.488 0.254,-0.46L0.232,-0.315L0.171,-0.315L0.195,-0.466Z" style="fill:rgb(0,90,80);fill-rule:nonzero;"/>
            </g>
            <g transform="matrix(500,0,0,500,2120,3205.5)">
                <path d="M0.321,-0.605C0.272,-0.605 0.237,-0.58 0.215,-0.554L0.222,-0.595L0.077,-0.595L-0.017,-0L0.128,-0L0.203,-0.472C0.212,-0.484 0.223,-0.49 0.236,-0.49C0.255,-0.49 0.263,-0.478 0.259,-0.453L0.188,-0L0.333,-0L0.408,-0.475C0.422,-0.564 0.389,-0.605 0.321,-0.605Z" style="fill:rgb(0,90,80);fill-rule:nonzero;"/>
            </g>
            <g transform="matrix(500,0,0,500,2325,3205.5)">
                <path d="M0.061,-0.453L0.031,-0.209L0.172,-0.209L0.219,-0.453L0.277,-0.8L0.115,-0.8L0.061,-0.453ZM0.144,-0L0.167,-0.147L0.02,-0.147L-0.003,-0L0.144,-0Z" style="fill:rgb(0,90,80);fill-rule:nonzero;"/>
            </g>
        </g>
    </g>
</svg>
